<svg width="65" height="71" viewBox="0 0 65 71" fill="none" xmlns="http://www.w3.org/2000/svg">
<path d="M0.81278 13.0564H39.8599M49.8973 43.802C48.8578 41.3514 46.4308 39.6299 43.5992 39.6299M43.5992 39.6299C39.8516 39.6299 36.805 41.1897 36.7653 44.9088C36.7648 44.9573 36.764 45.0044 36.765 45.0529C36.7774 45.6534 37.1073 49.8978 43.952 49.8978C50.1501 49.8978 50.4398 54.2582 50.4375 55.1079C50.4372 55.2038 50.434 55.2999 50.432 55.3958C50.3543 59.0669 47.3274 60.7396 43.5992 60.7396C40.7677 60.7396 38.3406 59.0181 37.3011 56.5675M43.5992 39.6299L43.5993 36.845M43.5993 63.5281V60.7436M29.5726 36.3604C26.0673 39.9166 23.904 44.7992 23.904 50.1871C23.904 54.6202 25.3685 58.7112 27.8401 62.0028M29.5726 36.3604C33.1447 32.7364 38.1106 30.4899 43.6012 30.4899C54.4797 30.4899 63.2984 39.3086 63.2984 50.1871C63.2984 61.0655 54.4797 69.8843 43.6012 69.8843C37.1558 69.8843 31.4335 66.7885 27.8401 62.0028M29.5726 36.3604L27.1393 33.752C25.7344 32.2461 25.7026 29.9196 27.0657 28.3758L39.0322 14.8238C39.6776 14.0929 40.0338 13.1514 40.0338 12.1762V4.75C40.0338 2.5409 38.2429 0.75 36.0338 0.75H4.75C2.54086 0.75 0.75 2.5409 0.75 4.75V12.2146C0.75 13.1665 1.08949 14.0873 1.70747 14.8113L13.3291 28.4281C14.6326 29.9553 14.6018 32.2123 13.2572 33.7035L1.77933 46.4326C1.11673 47.1675 0.75 48.1218 0.75 49.1113V58.0028C0.75 60.2119 2.54086 62.0028 4.75 62.0028H27.8401" stroke="#CAFF00" stroke-width="1.5" stroke-linecap="round" stroke-linejoin="round"/>
</svg>
