<svg width="66" height="72" viewBox="0 0 66 72" fill="none" xmlns="http://www.w3.org/2000/svg">
<path d="M1.59566 26.0605C1.59566 25.6463 1.25987 25.3105 0.84566 25.3105C0.43145 25.3105 0.09566 25.6463 0.09566 26.0605H1.59566ZM57.9818 33.8951C57.9818 34.3093 58.3176 34.6451 58.7318 34.6451C59.146 34.6451 59.4818 34.3093 59.4818 33.8951H57.9818ZM35.7992 15.0826C35.961 15.464 36.4013 15.642 36.7826 15.4802C37.164 15.3185 37.3419 14.8782 37.1801 14.4969L35.7992 15.0826ZM23.6666 15.9426L24.4161 15.9698C24.4165 15.9607 24.4166 15.9516 24.4166 15.9426H23.6666ZM37.0132 25.9686L36.2652 25.9147C36.2639 25.9326 36.2632 25.9506 36.2632 25.9686H37.0132ZM24.8806 26.9617C24.7189 26.5804 24.2787 26.4024 23.8974 26.5641C23.5161 26.7259 23.338 27.1661 23.4997 27.5475L24.8806 26.9617ZM31.0898 7.9969C31.0898 7.5827 30.754 7.2469 30.3398 7.2469C29.9256 7.247 29.5899 7.5828 29.5899 7.997L31.0898 7.9969ZM55.3071 69.9279L4.73666 69.9282V71.4282L55.3071 71.4279V69.9279ZM1.59566 66.7872V26.6972H0.09566V66.7872H1.59566ZM1.59566 26.6972V26.0605H0.09566V26.6972H1.59566ZM57.9818 23.2274V33.8951H59.4818V23.2274H57.9818ZM54.8409 20.0864C56.5756 20.0864 57.9818 21.4927 57.9818 23.2274H59.4818C59.4818 20.6643 57.404 18.5864 54.8409 18.5864V20.0864ZM4.73666 69.9282C3.00193 69.9282 1.59566 68.5219 1.59566 66.7872H0.09566C0.09566 69.3503 2.17351 71.4282 4.73666 71.4282V69.9282ZM58.4482 66.7869C58.4482 68.5216 57.0419 69.9279 55.3071 69.9279V71.4279C57.8703 71.4279 59.9482 69.3501 59.9482 66.7869H58.4482ZM55.3071 32.6144C57.0418 32.6144 58.4482 34.0207 58.4482 35.7554H59.9482C59.9482 33.1922 57.8703 31.1144 55.3071 31.1144V32.6144ZM0 25.6006C0 26.0186 0.03665 26.4287 0.10708 26.8276L1.58424 26.5668C1.52894 26.2536 1.5 25.9308 1.5 25.6006H0ZM0.10708 26.8276C0.68776 30.1164 3.55838 32.6146 7.01402 32.6146L7.01401 31.1146C4.29878 31.1146 2.04057 29.1513 1.58424 26.5668L0.10708 26.8276ZM1.5 25.6006C1.5 22.5554 3.96868 20.0867 7.01396 20.0867L7.01395 18.5867C3.14025 18.5867 0 21.7269 0 25.6006H1.5ZM37.1801 14.4969C36.0519 11.8372 33.417 9.966 30.34 9.966V11.466C32.7928 11.466 34.8974 12.9566 35.7992 15.0826L37.1801 14.4969ZM30.34 9.966C28.41 9.966 26.5705 10.3678 25.1917 11.3337C23.7758 12.3257 22.9166 13.8657 22.9166 15.9426H24.4166C24.4166 14.336 25.0524 13.2627 26.0523 12.5622C27.0893 11.8358 28.5866 11.466 30.34 11.466V9.966ZM23.6666 15.9426C22.9171 15.9153 22.9171 15.9159 22.9171 15.9165C22.9171 15.9167 22.917 15.9173 22.917 15.9177C22.917 15.9186 22.9171 15.9196 22.917 15.9206C22.917 15.9227 22.9169 15.925 22.9168 15.9277C22.9167 15.933 22.9166 15.9395 22.9165 15.9472C22.9163 15.9625 22.9162 15.9824 22.9165 16.0066C22.9171 16.0551 22.9193 16.1209 22.925 16.2017C22.9364 16.3629 22.962 16.5854 23.0182 16.849C23.1305 17.3751 23.3676 18.0761 23.8677 18.7777C24.8955 20.2194 26.9061 21.492 30.6844 21.492V19.992C27.2704 19.992 25.7721 18.8649 25.0891 17.9069C24.7338 17.4086 24.565 16.9097 24.4852 16.5359C24.4454 16.3496 24.4285 16.1971 24.4213 16.0959C24.4177 16.0454 24.4167 16.0081 24.4164 15.9863C24.4163 15.9753 24.4163 15.9683 24.4164 15.9655C24.4164 15.9659 24.4162 15.9672 24.4162 15.9678C24.4162 15.9681 24.4162 15.9686 24.4162 15.9688C24.4161 15.9693 24.4161 15.9698 23.6666 15.9426ZM30.6844 21.492C33.8051 21.492 35.1186 22.6849 35.7117 23.7264C36.0248 24.2762 36.1647 24.8327 36.2248 25.2572C36.2547 25.468 36.2642 25.6416 36.2665 25.7587C36.2676 25.8171 36.2671 25.861 36.2663 25.8879C36.2659 25.9014 36.2654 25.9102 36.2652 25.9147C36.2651 25.917 36.2649 25.9185 36.2649 25.9185C36.2649 25.9185 36.265 25.9181 36.265 25.9175C36.265 25.9172 36.265 25.9168 36.2651 25.9163C36.2651 25.9164 36.2651 25.9161 36.2651 25.9163C36.2652 25.9158 36.2652 25.9147 37.0132 25.9686C37.7613 26.0225 37.7613 26.022 37.7614 26.0215C37.7614 26.0213 37.7615 26.0208 37.7616 26.0204C37.7616 26.0196 37.7617 26.0187 37.7617 26.0178C37.7619 26.0159 37.7619 26.0137 37.7621 26.0111C37.7624 26.006 37.7627 25.9997 37.7631 25.9921C37.7639 25.9769 37.7648 25.9567 37.7655 25.9319C37.767 25.8822 37.7679 25.8138 37.7663 25.7293C37.763 25.5606 37.7495 25.3259 37.7099 25.0467C37.6311 24.4912 37.4461 23.7411 37.0151 22.9842C36.1201 21.4124 34.2692 19.992 30.6844 19.992V21.492ZM36.2632 25.9686C36.2632 27.5785 35.6252 28.6898 34.618 29.4236C33.5797 30.18 32.0845 30.5784 30.34 30.5784V32.0784C32.2836 32.0784 34.1249 31.6386 35.5012 30.636C36.9086 29.6107 37.7632 28.0421 37.7632 25.9686H36.2632ZM30.34 30.5784C27.8872 30.5784 25.7825 29.0877 24.8806 26.9617L23.4997 27.5475C24.6279 30.2071 27.2631 32.0784 30.34 32.0784V30.5784ZM31.09 10.7159L31.0898 7.9969L29.5899 7.997L29.59 10.716L31.09 10.7159ZM44.5991 43.6051H56.5215V42.1051H44.5991V43.6051ZM56.5215 57.632H44.5991V59.132H56.5215V57.632ZM44.5991 57.632C40.7257 57.632 37.5858 54.492 37.5858 50.6185H36.0858C36.0858 55.3204 39.8973 59.132 44.5991 59.132V57.632ZM44.5991 42.1051C39.8973 42.1051 36.0858 45.9167 36.0858 50.6185H37.5858C37.5858 46.7451 40.7257 43.6051 44.5991 43.6051V42.1051ZM10.8182 21.0241C10.8182 20.4765 10.8407 19.9342 10.8849 19.3982L9.38995 19.2751C9.34245 19.8519 9.31825 20.4353 9.31825 21.0241H10.8182ZM10.8849 19.3982C11.7107 9.3765 20.1072 1.5 30.3424 1.5V0C19.32 0 10.2793 8.4817 9.38995 19.2751L10.8849 19.3982ZM7.01396 20.0867L10.1375 20.0866V18.5866L7.01395 18.5867L7.01396 20.0867ZM50.5472 20.0864H54.8409V18.5864H50.5472V20.0864ZM30.3424 1.5C40.5775 1.5 48.9739 9.3764 49.7997 19.398L51.2948 19.2748C50.4053 8.4816 41.3647 0 30.3424 0V1.5ZM49.7997 19.398C49.8439 19.9341 49.8666 20.4764 49.8666 21.0241H51.3666C51.3666 20.4352 51.3423 19.8518 51.2948 19.2748L49.7997 19.398ZM49.8666 21.0241C49.8666 24.8647 48.7584 28.4441 46.8447 31.4629L48.1115 32.266C50.173 29.0142 51.3666 25.1574 51.3666 21.0241H49.8666ZM47.4781 32.6144H55.3071V31.1144H47.4781V32.6144ZM7.01402 32.6146H13.2067V31.1146H7.01401L7.01402 32.6146ZM13.8401 31.463C11.9264 28.4443 10.8182 24.8648 10.8182 21.0241H9.31825C9.31825 25.1575 10.5117 29.0143 12.5732 32.2662L13.8401 31.463ZM13.2067 32.6146L30.3424 32.6145V31.1145L13.2067 31.1146V32.6146ZM30.3424 32.6145L47.4781 32.6144V31.1144L30.3424 31.1145V32.6145ZM56.5215 43.6051C57.3727 43.6051 58.1867 43.7564 58.9395 44.0329L59.4567 42.6249C58.5407 42.2884 57.5517 42.1051 56.5215 42.1051V43.6051ZM58.9395 44.0329C61.6226 45.0184 63.5349 47.5961 63.5349 50.6185H65.035C65.035 46.9471 62.7112 43.8202 59.4567 42.6249L58.9395 44.0329ZM58.4482 35.7554V43.3289H59.9482V35.7554H58.4482ZM58.4482 57.9082V66.7869H59.9482V57.9082H58.4482ZM63.5349 50.6185C63.5349 53.641 61.6226 56.2187 58.9395 57.2042L59.4567 58.6122C62.7112 57.4168 65.035 54.29 65.035 50.6185H63.5349ZM58.9395 57.2042C58.1867 57.4807 57.3727 57.632 56.5215 57.632V59.132C57.5517 59.132 58.5407 58.9487 59.4567 58.6122L58.9395 57.2042Z" fill="#CAFF00"/>
</svg>
