<svg width="82" height="73" viewBox="0 0 82 73" fill="none" xmlns="http://www.w3.org/2000/svg">
<path d="M19.7502 67.4841L19.6367 67.0607M19.6367 67.0607L15.8832 53.0524M19.6367 67.0607V67.9777C19.6367 70.0746 21.3366 71.7744 23.4335 71.7744H67.6304C69.7273 71.7744 71.4273 70.0746 71.4273 67.9777V27.0679M19.6367 67.0607V15.297M52.0914 32.8214C51.0085 30.2685 48.4801 28.475 45.5302 28.475M45.5302 28.475C41.6238 28.475 38.4485 30.1019 38.4108 33.9813C38.4104 34.0273 38.4096 34.0725 38.4104 34.1185C38.4213 34.7211 38.7438 39.1718 45.8978 39.1718C52.385 39.1718 52.6592 43.757 52.6539 44.6118C52.6534 44.7028 52.6504 44.7951 52.6487 44.8861C52.5748 48.7199 49.4186 50.4665 45.5302 50.4665C42.5804 50.4665 40.052 48.673 38.9691 46.1201M45.5302 28.475L45.5303 25.5732M45.5303 53.371V50.4702M59.6944 13.443L64.6284 18.8225C65.0046 19.2328 65.6514 19.2327 66.0276 18.8224L75.4386 8.5558M8.82249 26.7014L7.67848 22.4319C7.13577 20.4065 8.33775 18.3246 10.3631 17.7819L19.6367 15.297M8.82249 26.7014L1.86204 33.6619C0.37932 35.1446 0.37932 37.5485 1.86204 39.0312L15.8832 53.0524M8.82249 26.7014L15.8832 53.0524M19.6367 15.297V10.9675C19.6367 8.8706 21.3366 7.1708 23.4335 7.1708H55.479M71.4273 27.0679C70.0382 27.5495 68.5462 27.8111 66.9932 27.8111C59.5204 27.8111 53.4627 21.7533 53.4627 14.2805C53.4627 11.6725 54.2006 9.2368 55.479 7.1708M71.4273 27.0679C76.7223 25.2321 80.5238 20.2003 80.5238 14.2805C80.5238 6.8078 74.4659 0.75 66.9932 0.75C62.1285 0.75 57.8635 3.3172 55.479 7.1708" stroke="#CAFF00" stroke-width="1.5" stroke-linecap="round" stroke-linejoin="round"/>
</svg>
