<svg preserveAspectRatio="none" width="100%" height="100%" overflow="visible" style="display: block;" viewBox="0 0 96 26.7541" fill="none" xmlns="http://www.w3.org/2000/svg">
<g id="Frame" clip-path="url(#clip0_0_14)">
<path id="Vector" fill-rule="evenodd" clip-rule="evenodd" d="M18.0616 1.14883L23.6122 4.33732V11.6003C23.5391 15.8354 19.5834 16.8089 18.0616 15.1198V1.14883ZM5.55066 25.2743L0 22.0858V14.8228C0.0731633 10.5877 4.02886 9.61415 5.55066 11.3033V25.2743ZM8.28696 13.012V19.496L20.793 26.7541V20.27L8.28696 13.012ZM2.80947 0V6.48407L15.3155 13.7373V7.25807L2.80947 0Z" fill="var(--fill-0, #C4FF00)"/>
<path id="Vector_2" fill-rule="evenodd" clip-rule="evenodd" d="M63.9837 7.00008H69.9587H73.6315H79.6065V10.6851H73.6315V21.2339H69.9587V10.6851H63.9837V7.00008ZM53.9262 15.9522V12.2866H62.7936V15.9522H53.9262ZM62.7985 7.03415H54.2725C50.3705 7.03415 47.1757 10.2226 47.1757 14.117C47.1757 18.0113 50.3705 21.1998 54.2725 21.1998H62.7985V17.5489H54.3164C52.4288 17.5489 50.8875 16.0106 50.8875 14.1267C50.8875 12.2428 52.4288 10.7046 54.3164 10.7046H62.7985V7.03415ZM34.6355 7.16072H41.0056C43.7712 7.16072 46.0392 9.41944 46.0392 12.1844V20.971H42.4006V12.272C42.4006 11.4688 41.7421 10.8117 40.9373 10.8117H34.7087C33.9039 10.8117 33.2454 11.4688 33.2454 12.272V20.971H29.6067V12.1795C29.6067 9.41944 31.8699 7.16072 34.6355 7.16072ZM87.1277 15.8986V12.2331H95.9951V15.8986H87.1277ZM96 6.98548H87.474C83.572 6.98548 80.3772 10.174 80.3772 14.0683C80.3772 17.9626 83.572 21.1511 87.474 21.1511H96V17.5002H87.5179C85.6303 17.5002 84.089 15.9619 84.089 14.078C84.089 12.1942 85.6303 10.6559 87.5179 10.6559H96V6.98548Z" fill="var(--fill-0, white)"/>
</g>
<defs>
<clipPath id="clip0_0_14">
<rect width="96" height="26.7541" fill="white"/>
</clipPath>
</defs>
</svg>
